# xmcd
#
# Track frame offsets: 
#        150
#        93872
#        129215
#        176305
#        215482
#        237625
#        256865
#        299017
#        325940
#
# Disc length: 4673 seconds
#
# Revision: 5
# Processed by: cddbd v1.5.2PL0 Copyright (c) Steve Scherf et al.
# Submitted via: ExactAudioCopy v0.99pb5
#
DISCID=7e123f09
DTITLE=Edwin Fischer, Wilhelm Furtwangler, Philharmonia Orchestra - Be
DTITLE=ethoven - Piano Concerto No.5 in E flat major Op.73 "Emperor", 
DTITLE=Piano Sonatas Nos. 8 and 23
DYEAR=1951
DGENRE=Symphony
TTITLE0=01. Piano Concerto No.5 in E flat major Op.73 -"Emperor" - 1. 
TTITLE0=Allegro
TTITLE1=02. Piano Concerto No.5 in E flat major Op.73 -"Emperor" - 2. 
TTITLE1=Adagio un poco mosso
TTITLE2=03. Piano Concerto No.5 in E flat major Op.73 -"Emperor" - 3. 
TTITLE2=Rondo (Allegro)
TTITLE3=04. Piano Sonata No.8 in C minor, Op.13 -"Path¨¦tique" - 1. Gr
TTITLE3=ave - Allegro di molto e con brio
TTITLE4=05. Piano Sonata No.8 in C minor, Op.13 -"Path¨¦tique" - 2. Ad
TTITLE4=agio cantabile
TTITLE5=06. Piano Sonata No.8 in C minor, Op.13 -"Path¨¦tique" - 3. Ro
TTITLE5=ndo (Allegro)
TTITLE6=07. Piano Sonata No.23 in F minor, Op.57 -"Appassionata" - 1. 
TTITLE6=Allegro assai
TTITLE7=08. Piano Sonata No.23 in F minor, Op.57 -"Appassionata" - 2. 
TTITLE7=Andante con moto
TTITLE8=09. Piano Sonata No.23 in F minor, Op.57 -"Appassionata" - 3. 
TTITLE8=Allegro ma non troppo
EXTD=YEAR: 1951
EXTT0=
EXTT1=
EXTT2=
EXTT3=
EXTT4=
EXTT5=
EXTT6=
EXTT7=
EXTT8=
PLAYORDER=
